<?xml version="1.0" encoding="UTF-8" standalone="no"?><svg xmlns="http://www.w3.org/2000/svg" xmlns:xlink="http://www.w3.org/1999/xlink" contentStyleType="text/css" height="344px" preserveAspectRatio="none" style="width:510px;height:344px;background:#FFFFFF;" version="1.1" viewBox="0 0 510 344" width="510px" zoomAndPan="magnify"><defs/><g><text fill="#000000" font-family="sans-serif" font-size="14" font-weight="bold" lengthAdjust="spacing" textLength="83" x="212" y="27.9951">Blend flow</text><line style="stroke:#181818;stroke-width:0.5;stroke-dasharray:5.0,5.0;" x1="41" x2="41" y1="73.5938" y2="309.5234"/><line style="stroke:#181818;stroke-width:0.5;stroke-dasharray:5.0,5.0;" x1="172.5" x2="172.5" y1="73.5938" y2="309.5234"/><line style="stroke:#181818;stroke-width:0.5;stroke-dasharray:5.0,5.0;" x1="311" x2="311" y1="73.5938" y2="309.5234"/><line style="stroke:#181818;stroke-width:0.5;stroke-dasharray:5.0,5.0;" x1="444.5" x2="444.5" y1="73.5938" y2="309.5234"/><rect fill="#E2E2F0" height="30.2969" rx="2.5" ry="2.5" style="stroke:#181818;stroke-width:0.5;" width="46" x="18" y="42.2969"/><text fill="#000000" font-family="sans-serif" font-size="14" lengthAdjust="spacing" textLength="32" x="25" y="62.292">User</text><rect fill="#E2E2F0" height="30.2969" rx="2.5" ry="2.5" style="stroke:#181818;stroke-width:0.5;" width="46" x="18" y="308.5234"/><text fill="#000000" font-family="sans-serif" font-size="14" lengthAdjust="spacing" textLength="32" x="25" y="328.5186">User</text><rect fill="#E2E2F0" height="30.2969" rx="2.5" ry="2.5" style="stroke:#181818;stroke-width:0.5;" width="67" x="139.5" y="42.2969"/><text fill="#000000" font-family="sans-serif" font-size="14" lengthAdjust="spacing" textLength="53" x="146.5" y="62.292">AllTrack</text><rect fill="#E2E2F0" height="30.2969" rx="2.5" ry="2.5" style="stroke:#181818;stroke-width:0.5;" width="67" x="139.5" y="308.5234"/><text fill="#000000" font-family="sans-serif" font-size="14" lengthAdjust="spacing" textLength="53" x="146.5" y="328.5186">AllTrack</text><rect fill="#E2E2F0" height="30.2969" rx="2.5" ry="2.5" style="stroke:#181818;stroke-width:0.5;" width="82" x="270" y="42.2969"/><text fill="#000000" font-family="sans-serif" font-size="14" lengthAdjust="spacing" textLength="68" x="277" y="62.292">OrdersAPI</text><rect fill="#E2E2F0" height="30.2969" rx="2.5" ry="2.5" style="stroke:#181818;stroke-width:0.5;" width="82" x="270" y="308.5234"/><text fill="#000000" font-family="sans-serif" font-size="14" lengthAdjust="spacing" textLength="68" x="277" y="328.5186">OrdersAPI</text><rect fill="#E2E2F0" height="30.2969" rx="2.5" ry="2.5" style="stroke:#181818;stroke-width:0.5;" width="75" x="407.5" y="42.2969"/><text fill="#000000" font-family="sans-serif" font-size="14" lengthAdjust="spacing" textLength="61" x="414.5" y="62.292">BlendAPI</text><rect fill="#E2E2F0" height="30.2969" rx="2.5" ry="2.5" style="stroke:#181818;stroke-width:0.5;" width="75" x="407.5" y="308.5234"/><text fill="#000000" font-family="sans-serif" font-size="14" lengthAdjust="spacing" textLength="61" x="414.5" y="328.5186">BlendAPI</text><polygon fill="#181818" points="161,100.7266,171,104.7266,161,108.7266,165,104.7266" style="stroke:#181818;stroke-width:1.0;"/><line style="stroke:#181818;stroke-width:1.0;stroke-dasharray:2.0,2.0;" x1="41" x2="167" y1="104.7266" y2="104.7266"/><text fill="#000000" font-family="sans-serif" font-size="13" lengthAdjust="spacing" textLength="108" x="48" y="99.6606">Click on line item</text><polygon fill="#181818" points="299,129.8594,309,133.8594,299,137.8594,303,133.8594" style="stroke:#181818;stroke-width:1.0;"/><line style="stroke:#181818;stroke-width:1.0;" x1="173" x2="305" y1="133.8594" y2="133.8594"/><text fill="#000000" font-family="sans-serif" font-size="13" lengthAdjust="spacing" textLength="95" x="180" y="128.7935">Get blend data</text><path d="M5,146.8594 L5,171.8594 L341,171.8594 L341,156.8594 L331,146.8594 L5,146.8594 " fill="#FEFFDD" style="stroke:#181818;stroke-width:0.5;"/><path d="M331,146.8594 L331,156.8594 L341,156.8594 L331,146.8594 " fill="#FEFFDD" style="stroke:#181818;stroke-width:0.5;"/><text fill="#000000" font-family="sans-serif" font-size="13" lengthAdjust="spacing" textLength="315" x="11" y="163.9263">/sellproducts/orders/{id}/lines/{line-id}/workorder</text><polygon fill="#181818" points="433,194.125,443,198.125,433,202.125,437,198.125" style="stroke:#181818;stroke-width:1.0;"/><line style="stroke:#181818;stroke-width:1.0;" x1="311" x2="439" y1="198.125" y2="198.125"/><text fill="#000000" font-family="sans-serif" font-size="13" lengthAdjust="spacing" textLength="95" x="318" y="193.0591">Get blend data</text><path d="M387,211.125 L387,236.125 L503,236.125 L503,221.125 L493,211.125 L387,211.125 " fill="#FEFFDD" style="stroke:#181818;stroke-width:0.5;"/><path d="M493,211.125 L493,221.125 L503,221.125 L493,211.125 " fill="#FEFFDD" style="stroke:#181818;stroke-width:0.5;"/><text fill="#000000" font-family="sans-serif" font-size="13" lengthAdjust="spacing" textLength="95" x="393" y="228.1919">no blend found</text><polygon fill="#181818" points="322,258.3906,312,262.3906,322,266.3906,318,262.3906" style="stroke:#181818;stroke-width:1.0;"/><line style="stroke:#181818;stroke-width:1.0;" x1="316" x2="444" y1="262.3906" y2="262.3906"/><text fill="#000000" font-family="sans-serif" font-size="13" lengthAdjust="spacing" textLength="110" x="328" y="257.3247">No records found</text><polygon fill="#181818" points="184,287.5234,174,291.5234,184,295.5234,180,291.5234" style="stroke:#181818;stroke-width:1.0;"/><line style="stroke:#181818;stroke-width:1.0;" x1="178" x2="310" y1="291.5234" y2="291.5234"/><text fill="#000000" font-family="sans-serif" font-size="13" lengthAdjust="spacing" textLength="114" x="190" y="286.4575">No records found.</text><!--SRC=[ROv13i8W44Ntd68kKDbtOL9T63VgGW-0C4r8HyO0jGlZtGNIMcrS0VcF_twqaH0sXCv0Ipm8SGdeeQhMq12TlT9T3LkokWDsGDOXs8Wt8QOK4ddq1dreJliQTXZXMjgCYWg4uuZ0ZrGvryc0H7VFfjSnI2wVvTEQbypzwPgFAhy7zbt9nKUHVMNk7zsNRKOSZqJBlJDY2XQx3mmUTNA5aViHpjkNtEeD]--></g></svg>